<?xml version="1.0" standalone="no"?>
<!DOCTYPE svg PUBLIC "-//W3C//DTD SVG 20010904//EN"
 "http://www.w3.org/TR/2001/REC-SVG-20010904/DTD/svg10.dtd">
<svg version="1.0" xmlns="http://www.w3.org/2000/svg"
 width="1620.000000pt" height="1620.000000pt" viewBox="0 0 1620.000000 1620.000000"
 preserveAspectRatio="xMidYMid meet">
<metadata>
Created by potrace 1.11, written by Peter Selinger 2001-2013
</metadata>
<g transform="translate(0.000000,1620.000000) scale(0.100000,-0.100000)"
fill="#000000" stroke="none">
<path d="M10815 16191 c-3 -3 -22 -4 -41 -3 -27 2 -34 0 -28 -10 6 -10 4 -10
-9 0 -9 8 -20 11 -25 8 -8 -5 -150 -18 -232 -20 -25 -1 -50 -5 -55 -8 -6 -3
-19 -4 -30 -2 -10 1 -25 -2 -31 -7 -8 -7 -14 -6 -19 1 -3 6 -11 7 -17 4 -6 -4
-36 -8 -67 -10 -31 -2 -56 -3 -56 -4 0 -2 -131 -12 -172 -12 -23 -1 -40 -5
-37 -10 3 -4 -6 -4 -19 1 -14 6 -28 7 -31 3 -7 -6 -24 -8 -141 -17 -74 -6
-133 -10 -230 -19 -33 -3 -89 -8 -125 -11 -36 -3 -87 -7 -115 -10 -27 -2 -90
-7 -140 -11 -49 -3 -103 -7 -120 -9 -84 -10 -224 -23 -302 -28 -34 -2 -88 -51
-77 -69 4 -6 2 -8 -3 -5 -10 6 -29 -23 -21 -31 2 -2 -5 -8 -15 -13 -9 -6 -15
-14 -12 -20 4 -5 -1 -12 -9 -15 -9 -3 -16 -12 -16 -20 0 -8 -3 -14 -8 -14 -4
0 -7 -85 -8 -189 0 -118 4 -187 10 -184 5 4 6 1 0 -8 -5 -8 -9 -57 -10 -109
-1 -52 -2 -99 -4 -105 -1 -5 -1 -12 0 -15 6 -14 5 -128 -1 -147 -5 -12 -5 -24
-1 -27 10 -6 8 -79 -2 -95 -4 -6 -3 -11 1 -11 5 0 9 -13 8 -30 0 -16 -4 -30
-9 -30 -5 0 -4 -6 3 -13 8 -10 7 -17 -1 -25 -7 -7 -8 -12 -2 -12 6 0 9 -16 7
-37 -2 -21 -5 -50 -7 -65 -1 -16 2 -28 8 -28 6 0 5 -5 -2 -12 -6 -6 -8 -18 -3
-27 9 -19 8 -87 -2 -97 -3 -4 -3 -14 1 -23 5 -9 7 -25 6 -36 -4 -36 -4 -99 -1
-137 1 -21 0 -38 -3 -38 -3 0 -4 -19 -3 -42 1 -24 2 -43 3 -43 1 0 2 -19 3
-42 1 -23 -1 -39 -5 -37 -5 3 -8 1 -8 -5 0 -5 5 -13 10 -16 7 -4 7 -12 0 -24
-5 -10 -6 -21 -3 -25 9 -9 13 -36 5 -36 -8 0 -8 -58 0 -66 3 -3 3 -19 -1 -37
-4 -18 -4 -47 0 -64 3 -18 4 -33 0 -33 -3 0 -6 -16 -6 -35 0 -19 3 -35 7 -35
4 0 5 -7 2 -15 -9 -23 -10 -195 -1 -195 5 0 5 -4 2 -10 -9 -14 -13 -100 -5
-100 4 0 6 -10 4 -22 -1 -13 -3 -23 -4 -23 -1 0 -3 -21 -4 -47 0 -27 3 -48 7
-48 5 0 5 -5 1 -12 -10 -15 -11 -289 -2 -294 4 -3 4 -15 0 -27 -5 -12 -7 -47
-5 -77 2 -30 3 -59 3 -65 0 -5 -2 -41 -3 -80 -2 -38 0 -77 5 -86 4 -9 4 -19 1
-23 -11 -10 -11 -56 -1 -56 4 0 8 -5 8 -11 0 -20 41 -69 52 -63 6 4 8 2 4 -4
-3 -6 1 -17 9 -25 8 -9 15 -19 15 -23 0 -3 10 -15 22 -25 11 -11 16 -19 9 -19
-6 0 -15 -8 -18 -17 -16 -43 -43 -47 -143 -26 -39 8 -130 7 -185 -2 -27 -4
-61 -9 -75 -10 -46 -5 -145 -22 -145 -25 0 -1 -27 -3 -59 -6 -33 -2 -63 -9
-68 -16 -6 -10 -8 -10 -8 0 0 8 -5 10 -12 6 -6 -4 -23 -8 -37 -10 -82 -7 -146
-17 -149 -23 -1 -4 -16 -6 -32 -5 -16 1 -47 -2 -67 -6 -21 -5 -60 -11 -88 -15
-27 -3 -53 -12 -57 -18 -6 -9 -8 -8 -8 2 0 8 -6 11 -17 6 -10 -3 -38 -9 -63
-12 -25 -3 -52 -7 -60 -9 -8 -1 -23 -3 -33 -3 -12 -1 -16 -5 -11 -13 6 -9 3
-9 -9 0 -9 8 -20 11 -25 8 -5 -3 -27 -8 -48 -11 -68 -10 -118 -16 -148 -20
-16 -1 -32 -9 -37 -16 -6 -9 -9 -10 -9 -2 0 6 -9 11 -20 10 -11 -1 -20 -4 -20
-7 0 -4 -15 -7 -32 -8 -18 0 -51 -3 -73 -6 -123 -18 -150 -23 -150 -26 0 -1
-27 -4 -60 -6 -32 -3 -62 -8 -65 -12 -3 -4 -21 -7 -40 -8 -55 -2 -104 -7 -115
-13 -5 -3 -19 -6 -30 -7 -19 0 -84 -9 -150 -20 -16 -3 -43 -7 -60 -9 -80 -10
-120 -18 -123 -26 -2 -4 -9 -6 -16 -3 -13 5 -102 -122 -98 -138 1 -5 -2 -8 -6
-8 -4 0 -15 -12 -23 -27 -16 -28 -17 -112 -9 -638 1 -66 1 -124 0 -130 -1 -5
-2 -12 -1 -15 2 -6 10 -737 11 -1072 1 -160 5 -218 13 -218 9 0 9 -2 1 -8 -14
-9 -15 -94 -1 -85 6 4 7 1 1 -8 -11 -17 -12 -509 -1 -509 5 0 5 -5 2 -10 -6
-10 -8 -185 -2 -262 2 -21 -2 -38 -8 -38 -6 0 -7 -3 0 -8 12 -8 14 -102 2
-102 -5 0 -5 -4 -2 -10 12 -19 14 -50 4 -56 -6 -4 -6 -11 2 -20 9 -11 8 -14
-2 -14 -9 0 -10 -3 -4 -8 6 -4 11 -18 10 -32 0 -14 12 -38 27 -55 14 -16 42
-48 62 -70 19 -22 36 -45 36 -52 0 -15 -33 -73 -42 -73 -5 0 -8 -6 -8 -14 0
-11 -8 -12 -42 -4 -24 6 -52 12 -63 13 -11 2 -20 4 -20 5 0 2 -23 7 -72 14
-25 4 -43 3 -43 -2 0 -6 -6 -9 -12 -8 -32 3 -167 -28 -161 -37 3 -6 1 -7 -6
-3 -18 12 -92 -4 -84 -17 5 -8 2 -8 -9 0 -8 7 -18 10 -22 6 -3 -4 -14 -8 -23
-9 -9 -2 -48 -10 -87 -18 -39 -9 -87 -18 -106 -22 -19 -3 -39 -7 -45 -8 -5 -2
-21 -6 -35 -9 -32 -9 -78 -18 -110 -22 -14 -2 -25 -4 -25 -5 0 -3 -40 -12 -62
-13 -13 0 -23 -4 -23 -7 0 -3 -8 -6 -17 -6 -10 -1 -34 -4 -53 -8 -19 -4 -44
-8 -55 -11 -11 -2 -31 -6 -45 -9 -14 -4 -38 -9 -55 -12 -16 -2 -45 -9 -64 -14
-19 -5 -38 -7 -43 -4 -4 3 -8 0 -8 -6 0 -6 -4 -9 -9 -6 -4 3 -23 1 -42 -5 -19
-5 -47 -12 -64 -14 -25 -4 -47 -8 -97 -21 -5 -1 -11 -3 -15 -4 -5 -1 -12 -2
-17 -1 -5 1 -16 -1 -25 -5 -9 -4 -24 -8 -33 -9 -10 -2 -19 -3 -20 -5 -2 -1
-23 -4 -48 -6 -25 -3 -47 -10 -48 -15 -2 -5 -7 -7 -10 -5 -4 2 -27 0 -52 -5
-25 -5 -54 -11 -65 -13 -11 -2 -20 -4 -20 -5 0 -2 -18 -5 -40 -7 -22 -3 -42
-9 -43 -15 -2 -5 -8 -7 -12 -4 -5 3 -40 -2 -77 -11 -37 -9 -79 -17 -93 -19
-14 -1 -34 -5 -45 -8 -23 -7 -85 -19 -102 -20 -7 0 -13 -3 -13 -7 0 -4 -10 -6
-23 -5 -12 1 -28 -2 -34 -8 -7 -5 -13 -7 -13 -4 0 4 -19 0 -90 -18 -8 -2 -15
-4 -15 -5 0 -1 -11 -3 -25 -4 -60 -7 -116 -18 -127 -27 -18 -16 -93 -134 -93
-148 0 -7 -4 -10 -8 -7 -5 3 -16 -10 -25 -30 -20 -40 -22 -164 -3 -164 8 0 8
-2 -1 -8 -14 -9 -12 -64 2 -74 6 -5 6 -8 -2 -8 -7 0 -10 -9 -7 -22 3 -13 5
-30 5 -38 -2 -34 -1 -108 2 -150 2 -25 0 -57 -4 -72 -4 -16 -5 -28 -1 -28 4 0
8 -51 9 -113 2 -118 10 -504 19 -872 3 -121 7 -304 8 -407 2 -102 7 -191 10
-196 3 -6 2 -13 -4 -17 -6 -4 -7 -13 -1 -23 4 -9 7 -26 5 -37 -5 -29 -6 -56
-1 -93 3 -19 0 -32 -7 -32 -7 0 -7 -3 -1 -8 11 -7 15 -106 18 -419 1 -101 5
-183 9 -183 4 0 3 -11 -2 -24 -5 -15 -5 -27 3 -35 8 -8 8 -11 -1 -11 -8 0 -9
-7 -3 -22 5 -13 5 -33 0 -45 -5 -13 -5 -23 -1 -23 4 0 7 -40 7 -89 1 -100 -8
-85 114 -193 24 -21 38 -38 32 -38 -6 0 -11 -4 -11 -9 0 -12 -60 -103 -73
-112 -5 -3 -8 -10 -8 -15 1 -5 -6 -17 -14 -27 -9 -10 -13 -23 -9 -29 4 -7 3
-8 -4 -4 -13 8 -14 5 -16 -104 -1 -41 1 -82 5 -91 4 -8 4 -21 -1 -29 -5 -8 -4
-22 1 -32 6 -12 6 -18 0 -18 -7 0 -7 -8 -2 -23 5 -12 5 -32 0 -44 -5 -13 -5
-23 -1 -23 4 0 7 -53 7 -117 -1 -65 3 -124 8 -130 5 -7 6 -13 1 -13 -5 0 -8
-21 -6 -47 1 -27 4 -125 5 -220 2 -95 6 -175 10 -179 4 -4 2 -13 -4 -21 -9
-10 -8 -13 2 -13 9 0 10 -3 4 -8 -14 -10 -17 -32 -5 -32 12 0 9 -22 -5 -32 -7
-5 -7 -8 0 -8 6 0 10 -64 10 -173 0 -94 3 -182 7 -194 4 -13 3 -23 -2 -23 -5
0 -7 -6 -5 -13 3 -7 7 -73 8 -147 2 -74 7 -141 11 -149 6 -10 5 -12 -2 -7 -7
4 -12 3 -12 -3 0 -5 4 -12 10 -16 6 -4 6 -15 0 -30 -7 -18 -6 -25 3 -25 8 0 8
-3 -2 -9 -9 -6 -10 -11 -2 -15 7 -4 7 -15 1 -30 -5 -13 -7 -26 -4 -28 4 -5 12
-220 15 -450 1 -89 6 -135 12 -131 6 4 7 1 1 -8 -11 -18 -12 -159 0 -159 5 0
4 -6 0 -12 -5 -7 -8 -24 -7 -38 1 -14 4 -94 5 -178 l4 -154 34 -30 c19 -16 51
-44 70 -62 36 -33 113 -70 124 -59 3 4 6 1 6 -5 0 -7 9 -12 20 -12 11 0 20 -5
20 -12 0 -6 3 -9 6 -5 3 3 26 -3 50 -13 24 -11 44 -16 44 -12 0 4 4 1 8 -5 4
-7 19 -14 32 -15 14 -2 27 -5 30 -8 12 -13 94 -39 103 -33 6 3 7 1 3 -5 -4 -7
-1 -12 6 -12 7 0 49 -13 91 -30 43 -16 89 -30 101 -30 13 0 29 -6 35 -13 9
-12 105 -53 191 -82 3 -1 18 -7 33 -13 16 -7 33 -12 38 -12 5 0 9 -4 9 -8 0
-4 11 -9 23 -10 13 -1 37 -8 52 -16 21 -11 32 -12 42 -4 10 8 12 7 8 -4 -4
-11 2 -18 22 -23 15 -3 42 -12 58 -20 71 -31 117 -45 127 -39 7 4 8 2 4 -4 -5
-8 4 -12 27 -12 21 0 41 -7 52 -20 10 -11 20 -18 22 -16 2 2 39 -11 81 -29 42
-18 80 -33 84 -34 4 -1 22 -7 40 -14 18 -6 36 -10 41 -9 4 1 7 -2 7 -6 0 -8 6
-10 49 -14 11 -1 17 -6 15 -10 -5 -7 4 -10 22 -7 3 0 15 -6 27 -14 12 -8 30
-13 40 -11 11 1 16 0 13 -4 -8 -7 61 -33 91 -35 12 -1 20 -3 17 -6 -3 -3 19
-13 47 -23 42 -14 54 -15 61 -6 4 7 8 10 8 6 0 -8 47 6 98 29 18 8 37 11 42 8
6 -3 10 -1 10 4 0 6 9 11 19 11 11 0 23 5 26 10 4 6 11 8 16 5 5 -4 9 -1 9 5
0 6 5 8 10 5 6 -4 16 -2 23 3 7 5 27 13 45 17 17 3 32 11 32 16 0 6 5 7 10 4
5 -3 16 -3 22 2 7 4 18 8 23 9 32 7 281 98 283 104 2 5 12 6 22 3 11 -3 20 -1
20 4 0 5 6 10 13 10 6 1 84 27 172 58 88 31 166 57 173 57 6 1 12 5 12 10 0 4
3 7 8 6 7 -2 99 26 137 42 44 18 61 23 73 21 6 -1 12 3 12 9 0 6 5 8 10 5 6
-3 10 -2 10 4 0 6 7 8 15 5 8 -4 15 -1 15 6 0 6 4 8 10 5 11 -7 51 12 62 29 6
8 8 8 8 -1 0 -8 7 -8 29 0 17 6 27 15 24 21 -3 5 -2 6 4 3 12 -8 93 13 93 24
0 5 3 8 8 7 11 -2 96 23 107 32 6 5 13 9 17 9 40 6 68 15 68 21 0 4 7 11 16
14 8 3 12 2 9 -4 -6 -9 53 11 86 30 9 5 33 12 53 15 20 4 36 11 36 17 0 5 4 7
9 4 4 -3 30 3 57 14 73 28 88 33 97 32 4 -1 7 2 7 7 0 4 8 8 18 8 25 0 62 14
58 22 -2 3 8 7 22 8 35 2 104 28 96 36 -3 3 3 3 14 0 14 -3 22 1 27 16 3 12
11 21 16 21 5 0 9 6 9 13 0 7 11 28 25 47 13 18 22 37 18 43 -8 13 71 1 101
-15 53 -30 137 -29 166 2 3 3 16 6 30 8 13 1 27 7 31 13 3 6 10 10 15 10 13
-1 82 18 113 31 14 6 28 12 31 13 3 0 30 9 60 20 30 11 58 18 63 17 4 -1 7 3
7 9 0 5 4 8 9 5 5 -3 23 1 40 10 18 9 40 17 49 19 9 2 17 4 17 5 0 1 7 3 15 5
37 9 226 78 237 87 7 5 16 7 21 4 5 -3 30 6 55 19 26 13 47 22 47 20 0 -4 68
18 100 32 8 3 17 7 20 8 73 22 96 31 102 40 4 5 8 7 8 3 0 -4 19 0 43 8 23 9
47 17 52 18 6 1 27 10 49 19 21 10 48 19 60 21 11 2 33 9 47 14 15 6 30 8 33
5 3 -4 6 -2 6 4 0 10 26 20 70 29 8 2 23 7 35 12 29 14 118 46 135 48 8 2 23
7 35 13 28 14 116 43 137 45 9 1 22 7 30 12 7 6 40 18 73 28 33 10 71 23 85
29 14 6 30 12 35 12 6 1 24 7 40 14 17 6 44 17 60 23 38 14 69 50 52 60 -8 5
-7 8 4 8 9 0 22 13 29 30 16 38 39 45 85 26 21 -9 40 -14 45 -11 4 2 16 -2 26
-9 13 -10 24 -11 36 -5 10 5 18 8 18 5 0 -3 15 1 34 9 18 8 36 11 40 8 3 -4 6
-1 6 5 0 7 9 12 21 12 13 0 18 4 13 12 -4 7 -3 8 5 4 12 -8 82 13 92 27 3 5 9
8 13 7 11 -3 71 12 81 20 6 5 36 16 67 25 32 9 60 20 63 25 3 5 12 7 20 3 8
-3 15 0 15 6 0 6 7 8 15 5 8 -4 15 -1 15 5 0 6 7 8 15 5 8 -4 15 -1 15 7 0 7
3 10 6 6 4 -3 36 5 73 19 36 14 89 33 116 41 28 8 55 19 62 25 7 5 16 7 22 4
5 -3 11 -3 13 1 1 5 69 30 151 58 81 27 147 53 147 56 0 4 8 6 18 5 9 -2 41 7
70 20 28 13 52 20 52 16 0 -3 5 -1 12 6 7 7 18 12 24 12 7 0 25 5 41 12 34 14
39 15 59 17 8 0 12 5 9 11 -3 5 0 7 9 4 8 -3 25 0 38 7 13 7 32 14 42 16 11 2
25 8 32 14 6 5 16 9 20 8 20 -3 35 2 30 10 -4 5 4 7 16 3 16 -4 19 -2 13 8 -5
9 -4 11 3 6 7 -4 18 -4 24 0 7 5 19 9 28 10 13 2 93 29 150 51 8 4 18 5 23 5
4 -1 7 3 7 8 0 5 3 9 8 8 4 -1 27 5 52 12 25 7 48 13 53 12 4 -1 7 3 7 8 0 5
3 9 8 9 21 -4 43 2 38 10 -3 5 1 14 9 21 8 7 12 16 10 21 -3 4 0 11 8 16 7 4
21 27 31 50 11 24 22 43 26 43 18 0 29 69 15 89 -7 10 -7 13 0 9 7 -4 11 27
10 94 0 55 3 105 7 111 3 6 2 21 -3 34 -5 15 -5 23 2 23 6 0 6 6 0 19 -6 10
-8 21 -5 23 9 10 12 78 3 84 -5 3 -6 11 -2 17 4 7 9 48 10 92 1 44 4 185 6
313 3 128 7 235 10 238 2 3 1 21 -3 40 -4 18 -4 34 1 34 5 0 4 11 -1 24 -6 17
-5 26 3 29 9 3 9 7 0 19 -7 8 -10 18 -6 22 4 4 8 77 10 164 1 86 5 162 7 169
3 7 0 13 -7 13 -7 0 -8 3 -2 8 6 4 10 68 10 157 -1 83 3 158 8 168 4 10 4 17
-2 17 -9 0 -7 38 3 48 3 2 1 14 -5 25 -8 14 -8 18 0 13 6 -4 11 -3 11 3 0 5
-5 13 -10 16 -6 4 -8 11 -4 16 11 18 11 69 0 69 -8 0 -8 3 -1 8 6 4 11 54 12
112 2 58 4 200 6 316 3 117 7 216 11 222 3 6 2 13 -3 16 -5 3 -7 15 -4 25 6
23 -25 93 -38 85 -5 -3 -9 1 -9 8 0 8 -9 20 -19 28 -11 7 -18 17 -15 22 3 4
-2 8 -10 8 -18 0 -21 16 -5 25 6 4 8 13 5 21 -3 8 -1 13 5 11 5 -1 22 21 37
48 15 28 30 52 35 53 4 2 7 12 7 23 0 10 4 19 9 19 9 0 12 52 14 282 1 82 5
148 9 148 4 0 3 11 -2 25 -5 14 -6 25 -1 25 5 0 5 16 1 35 -4 19 -5 35 -1 35
10 0 7 223 -3 239 -6 10 -6 12 2 7 9 -5 12 16 12 76 1 99 9 449 13 531 1 31
-1 57 -6 57 -4 0 -5 5 -1 12 4 6 9 57 10 112 6 228 16 657 17 739 2 53 -2 87
-8 87 -6 0 -6 3 0 8 6 4 12 56 14 122 1 63 4 192 6 287 l3 172 -36 48 c-20 26
-39 50 -42 53 -4 3 -9 12 -12 21 -7 18 -67 36 -111 35 -15 -1 -27 2 -27 7 0 5
-6 7 -14 4 -8 -3 -17 -3 -20 1 -7 6 -21 9 -69 15 -15 2 -30 7 -34 10 -11 11
-25 8 -17 -4 3 -6 -6 -3 -22 7 -21 14 -26 15 -19 4 7 -12 6 -13 -6 -4 -8 6
-21 12 -29 12 -8 0 -26 3 -40 6 -69 17 -185 34 -194 29 -5 -3 -6 -2 -3 4 4 6
-5 10 -21 11 -15 0 -32 2 -37 3 -6 1 -18 -1 -27 -5 -11 -5 -23 -2 -33 7 -11
12 -12 16 -2 20 9 3 9 8 -2 21 -12 14 -12 16 2 10 15 -5 44 31 39 49 -1 4 3 7
9 7 5 0 8 4 5 9 -3 5 1 12 10 15 8 3 12 10 9 16 -3 5 -3 10 2 10 25 0 36 71
40 254 2 105 5 261 6 346 3 104 0 157 -7 162 -8 6 -8 8 0 8 8 0 13 41 14 133
3 207 10 567 13 624 1 28 -1 49 -5 46 -5 -2 -4 7 2 21 6 16 6 27 -1 31 -5 4
-6 12 -2 18 8 13 10 51 17 502 3 176 6 320 6 320 6 0 4 84 -2 96 -4 9 -4 19
-1 23 4 4 8 71 9 149 2 78 4 192 5 254 2 112 -2 129 -43 178 -5 5 -22 28 -38
51 -22 30 -37 41 -57 42 -29 1 -73 8 -109 16 -11 2 -47 7 -79 10 -32 4 -74 9
-92 12 -19 3 -56 7 -81 9 -26 2 -47 5 -47 6 0 5 -127 20 -199 25 -38 2 -71 6
-74 8 -3 3 7 21 22 41 15 20 24 40 20 48 -4 6 -4 9 1 5 5 -5 23 17 42 48 l33
55 3 330 c1 181 5 329 9 329 4 0 3 11 -2 24 -5 13 -6 27 -3 30 4 3 8 106 9
228 10 722 13 848 19 858 3 5 1 10 -5 10 -7 0 -8 6 -1 18 7 13 6 23 -1 30 -7
7 -8 12 -2 12 7 0 11 102 4 120 -1 3 -1 10 0 15 2 6 4 99 6 208 1 109 5 201 8
204 3 4 1 12 -5 20 -9 9 -8 13 0 13 8 0 9 5 2 18 -5 10 -7 23 -3 29 4 6 7 111
7 232 0 122 3 221 7 221 8 0 4 27 -5 36 -3 4 -2 15 3 25 7 12 7 20 0 24 -6 4
-7 11 -4 17 13 20 10 69 -3 64 -7 -3 -10 1 -7 9 6 13 -1 24 -38 65 -9 10 -14
21 -11 24 3 3 -2 8 -11 12 -9 3 -13 10 -10 15 3 5 -2 12 -10 15 -9 3 -13 10
-10 15 3 5 -13 10 -35 10 -43 2 -76 5 -88 9 -19 6 -39 5 -50 -4 -8 -5 -13 -4
-13 2 0 6 -8 10 -17 10 -16 -1 -120 6 -273 18 -97 8 -240 11 -245 5z m-450
-151 c3 -5 1 -10 -4 -10 -6 0 -11 5 -11 10 0 6 2 10 4 10 3 0 8 -4 11 -10z
m-270 -20 c-3 -5 -12 -10 -18 -10 -7 0 -6 4 3 10 19 12 23 12 15 0z m-720 -60
c-3 -5 -12 -10 -18 -10 -7 0 -6 4 3 10 19 12 23 12 15 0z m-520 -160 c3 -6 -1
-7 -9 -4 -18 7 -21 14 -7 14 6 0 13 -4 16 -10z m586 -133 c-10 -9 -11 -8 -5 6
3 10 9 15 12 12 3 -3 0 -11 -7 -18z m-640 -194 c13 -16 12 -17 -3 -4 -10 7
-18 15 -18 17 0 8 8 3 21 -13z m1290 -150 c13 -16 12 -17 -3 -4 -17 13 -22 21
-14 21 2 0 10 -8 17 -17z m-1031 -77 c0 -2 -8 -10 -17 -17 -16 -13 -17 -12 -4
4 13 16 21 21 21 13z m-179 -173 c13 -16 12 -17 -3 -4 -17 13 -22 21 -14 21 2
0 10 -8 17 -17z m1210 -70 c13 -16 12 -17 -3 -4 -17 13 -22 21 -14 21 2 0 10
-8 17 -17z m-250 -250 c13 -16 12 -17 -3 -4 -17 13 -22 21 -14 21 2 0 10 -8
17 -17z m250 -70 c13 -16 12 -17 -3 -4 -17 13 -22 21 -14 21 2 0 10 -8 17 -17z
m-1040 -80 c13 -16 12 -17 -3 -4 -17 13 -22 21 -14 21 2 0 10 -8 17 -17z
m-170 -10 c13 -16 12 -17 -3 -4 -10 7 -18 15 -18 17 0 8 8 3 21 -13z m524 -41
c-3 -3 -11 0 -18 7 -9 10 -8 11 6 5 10 -3 15 -9 12 -12z m1725 -416 c0 -2 -8
-10 -17 -17 -16 -13 -17 -12 -4 4 13 16 21 21 21 13z m320 0 c0 -2 -8 -10 -17
-17 -16 -13 -17 -12 -4 4 13 16 21 21 21 13z m-390 -250 c0 -2 -8 -10 -17 -17
-16 -13 -17 -12 -4 4 13 16 21 21 21 13z m-489 -163 c13 -16 12 -17 -3 -4 -17
13 -22 21 -14 21 2 0 10 -8 17 -17z m959 -357 c0 -3 -4 -8 -10 -11 -5 -3 -10
-1 -10 4 0 6 5 11 10 11 6 0 10 -2 10 -4z m-5 -65 c3 -5 2 -12 -3 -15 -5 -3
-9 1 -9 9 0 17 3 19 12 6z m-2138 -136 c0 -8 -4 -12 -9 -9 -5 3 -6 10 -3 15 9
13 12 11 12 -6z m2136 -40 c-3 -9 -8 -14 -10 -11 -3 3 -2 9 2 15 9 16 15 13 8
-4z m-943 -199 c0 -2 -8 -10 -17 -17 -16 -13 -17 -12 -4 4 13 16 21 21 21 13z
m1434 -364 c3 -5 -1 -9 -9 -9 -8 0 -15 4 -15 9 0 4 4 8 9 8 6 0 12 -4 15 -8z
m-299 -42 c-3 -5 -12 -10 -18 -10 -7 0 -6 4 3 10 19 12 23 12 15 0z m-3634
-373 c-10 -9 -11 -8 -5 6 3 10 9 15 12 12 3 -3 0 -11 -7 -18z m454 -107 c-3
-5 -12 -10 -18 -10 -7 0 -6 4 3 10 19 12 23 12 15 0z m-684 -237 c13 -16 12
-17 -3 -4 -17 13 -22 21 -14 21 2 0 10 -8 17 -17z m397 -88 c-3 -3 -9 2 -12
12 -6 14 -5 15 5 6 7 -7 10 -15 7 -18z m-1601 -530 c0 -8 -4 -12 -9 -9 -5 3
-6 10 -3 15 9 13 12 11 12 -6z m1568 -105 c-3 -5 -12 -10 -18 -10 -7 0 -6 4 3
10 19 12 23 12 15 0z m-1567 -225 c-3 -3 -9 2 -12 12 -6 14 -5 15 5 6 7 -7 10
-15 7 -18z m1532 -169 c0 -2 -8 -10 -17 -17 -16 -13 -17 -12 -4 4 13 16 21 21
21 13z m-250 -70 c0 -2 -8 -10 -17 -17 -16 -13 -17 -12 -4 4 13 16 21 21 21
13z m-1236 -134 c3 -5 -1 -9 -9 -9 -8 0 -12 4 -9 9 3 4 7 8 9 8 2 0 6 -4 9 -8z
m-280 -40 c3 -5 -1 -9 -9 -9 -8 0 -12 4 -9 9 3 4 7 8 9 8 2 0 6 -4 9 -8z m236
2 c0 -8 -19 -13 -24 -6 -3 5 1 9 9 9 8 0 15 -2 15 -3z m5041 -241 c13 -16 12
-17 -3 -4 -10 7 -18 15 -18 17 0 8 8 3 21 -13z m509 3 c0 -2 -8 -10 -17 -17
-16 -13 -17 -12 -4 4 13 16 21 21 21 13z m-4429 -83 c13 -16 12 -17 -3 -4 -10
7 -18 15 -18 17 0 8 8 3 21 -13z m-1681 -43 c0 -5 -2 -10 -4 -10 -3 0 -8 5
-11 10 -3 6 -1 10 4 10 6 0 11 -4 11 -10z m2235 -269 c3 -5 2 -12 -3 -15 -5
-3 -9 1 -9 9 0 17 3 19 12 6z m-545 -325 c0 -2 -8 -10 -17 -17 -16 -13 -17
-12 -4 4 13 16 21 21 21 13z m-170 -150 c0 -2 -8 -10 -17 -17 -16 -13 -17 -12
-4 4 13 16 21 21 21 13z m-80 -400 c0 -2 -8 -10 -17 -17 -16 -13 -17 -12 -4 4
13 16 21 21 21 13z m1798 -101 c-3 -3 -9 2 -12 12 -6 14 -5 15 5 6 7 -7 10
-15 7 -18z m3162 -115 c0 -5 -5 -10 -11 -10 -5 0 -7 5 -4 10 3 6 8 10 11 10 2
0 4 -4 4 -10z m-5479 -37 c13 -16 12 -17 -3 -4 -10 7 -18 15 -18 17 0 8 8 3
21 -13z m-1061 -307 c0 -2 -8 -10 -17 -17 -16 -13 -17 -12 -4 4 13 16 21 21
21 13z m-2256 -554 c3 -5 -1 -9 -9 -9 -8 0 -12 4 -9 9 3 4 7 8 9 8 2 0 6 -4 9
-8z m76 4 c0 -2 -7 -7 -16 -10 -8 -3 -12 -2 -9 4 6 10 25 14 25 6z m2151 -33
c13 -16 12 -17 -3 -4 -10 7 -18 15 -18 17 0 8 8 3 21 -13z m6729 -137 c0 -2
-8 -10 -17 -17 -16 -13 -17 -12 -4 4 13 16 21 21 21 13z m-8580 -256 c0 -5 -2
-10 -4 -10 -3 0 -8 5 -11 10 -3 6 -1 10 4 10 6 0 11 -4 11 -10z m8510 6 c0 -2
-8 -10 -17 -17 -16 -13 -17 -12 -4 4 13 16 21 21 21 13z m-7445 -86 c3 -6 -1
-7 -9 -4 -18 7 -21 14 -7 14 6 0 13 -4 16 -10z m-1760 -160 c3 -6 -1 -7 -9 -4
-18 7 -21 14 -7 14 6 0 13 -4 16 -10z m965 -634 c0 -2 -8 -10 -17 -17 -16 -13
-17 -12 -4 4 13 16 21 21 21 13z m8160 0 c0 -2 -8 -10 -17 -17 -16 -13 -17
-12 -4 4 13 16 21 21 21 13z m301 -299 c-10 -9 -11 -8 -5 6 3 10 9 15 12 12 3
-3 0 -11 -7 -18z m-7030 -184 c13 -16 12 -17 -3 -4 -10 7 -18 15 -18 17 0 8 8
3 21 -13z m6720 0 c13 -16 12 -17 -3 -4 -10 7 -18 15 -18 17 0 8 8 3 21 -13z
m-8370 -730 c13 -16 12 -17 -3 -4 -10 7 -18 15 -18 17 0 8 8 3 21 -13z m8379
-707 c0 -2 -8 -10 -17 -17 -16 -13 -17 -12 -4 4 13 16 21 21 21 13z m270 -846
c0 -5 -5 -10 -11 -10 -5 0 -7 5 -4 10 3 6 8 10 11 10 2 0 4 -4 4 -10z m-8920
-264 c0 -2 -8 -10 -17 -17 -16 -13 -17 -12 -4 4 13 16 21 21 21 13z m-89 -263
c13 -16 12 -17 -3 -4 -17 13 -22 21 -14 21 2 0 10 -8 17 -17z m8560 -560 c13
-16 12 -17 -3 -4 -10 7 -18 15 -18 17 0 8 8 3 21 -13z m-756 -153 c3 -5 1 -10
-4 -10 -6 0 -11 5 -11 10 0 6 2 10 4 10 3 0 8 -4 11 -10z m-7795 -64 c0 -2 -8
-10 -17 -17 -16 -13 -17 -12 -4 4 13 16 21 21 21 13z m8125 -96 c-3 -5 -12
-10 -18 -10 -7 0 -6 4 3 10 19 12 23 12 15 0z m-905 -320 c0 -5 -2 -10 -4 -10
-3 0 -8 5 -11 10 -3 6 -1 10 4 10 6 0 11 -4 11 -10z m-2375 -560 c-3 -5 -12
-10 -18 -10 -7 0 -6 4 3 10 19 12 23 12 15 0z m316 -137 c13 -16 12 -17 -3 -4
-10 7 -18 15 -18 17 0 8 8 3 21 -13z m-4981 -647 c0 -2 -8 -10 -17 -17 -16
-13 -17 -12 -4 4 13 16 21 21 21 13z m2537 -171 c0 -8 -4 -12 -9 -9 -5 3 -6
10 -3 15 9 13 12 11 12 -6z m-1913 -83 c3 -5 -1 -9 -9 -9 -8 0 -12 4 -9 9 3 4
7 8 9 8 2 0 6 -4 9 -8z m1316 -76 c0 -3 -4 -8 -10 -11 -5 -3 -10 -1 -10 4 0 6
5 11 10 11 6 0 10 -2 10 -4z m-120 -130 c-7 -7 -13 -7 -20 0 -6 6 -3 10 10 10
13 0 16 -4 10 -10z"/>
</g>
</svg>
